<?xml version="1.0" encoding="utf-8"?>
<!-- Generator: Adobe Illustrator 16.0.0, SVG Export Plug-In . SVG Version: 6.00 Build 0)  -->
<!DOCTYPE svg PUBLIC "-//W3C//DTD SVG 1.1//EN" "http://www.w3.org/Graphics/SVG/1.1/DTD/svg11.dtd">
<svg version="1.1" id="Layer_1" xmlns="http://www.w3.org/2000/svg" xmlns:xlink="http://www.w3.org/1999/xlink" x="0px" y="0px"
	 width="306.042px" height="79.908px" viewBox="0 0 306.042 79.908" enable-background="new 0 0 306.042 79.908"
	 xml:space="preserve">
<path fill="#FFFFFF" d="M306.042,12.981V0.052H159.756h-0.524h-8.669h-4.854h-0.313l-13.239,25.837l-14.11-25.837h-0.214h-4.863V0
	L0,0.088l0.007,12.951l97.372-0.077L69.723,66.933L0,66.989l0.007,12.871h63.092h13.835h21.322l6.248-0.005l-0.002,0.005h13.833
	l0.008-0.016h0.187V79.48l6.979-13.617l-6.979-13.38L111.143,66.9l-27.579,0.022l27.569-53.799l18.025,33.005l3.309,6.154
	l0.025-0.049l15.088,27.627h-1.872v0.036l130.593,0.013v-0.049h29.741v-12.9l-109.75-0.01l-29.476-53.97L306.042,12.981z
	 M182.239,66.948l-27.662-0.002L139.294,38.96l13.313-25.981h0.16L182.239,66.948z"/>
<g>
	<path fill="#FFFFFF" d="M148.135,86.223c1.5-0.355,3.688-0.577,6.054-0.577c3.868,0,6.553,0.888,8.511,2.668
		c2.639,2.312,4.003,6.269,4.003,12.092c0,6.046-1.592,10.358-4.277,12.67c-2.047,1.958-5.099,2.89-9.376,2.89
		c-1.864,0-3.729-0.177-4.914-0.309V86.223z M154.098,111.121c0.272,0.087,0.726,0.087,1.047,0.087
		c2.865,0,5.371-2.758,5.371-11.025c0-6.134-1.64-9.872-5.234-9.872c-0.41,0-0.821,0-1.184,0.135V111.121z"/>
	<path fill="#FFFFFF" d="M188.592,100.229c0,11.291-4.095,15.87-9.919,15.87c-6.967,0-9.696-7.203-9.696-15.426
		c0-8.181,3.324-15.249,10.104-15.249C186.499,85.423,188.592,93.381,188.592,100.229z M175.167,100.762
		c0,6.801,1.319,10.269,3.732,10.269c2.502,0,3.461-4.446,3.461-10.537c0-5.246-0.822-10.003-3.507-10.003
		C176.486,90.491,175.167,94.314,175.167,100.762z"/>
	<path fill="#FFFFFF" d="M211.116,105.251c-0.136-2.844-0.362-6.712-0.271-9.914h-0.139c-0.547,3.202-1.361,6.891-1.957,9.202
		l-2.64,10.715h-4.232l-2.548-10.537c-0.592-2.401-1.411-6.134-1.865-9.38h-0.137c-0.091,3.246-0.273,7.024-0.456,10.004
		l-0.502,10.403h-5.141l2.227-29.966h6.284l2.453,10.849c0.867,3.779,1.645,7.113,2.188,10.492h0.09
		c0.456-3.335,1.138-6.713,1.958-10.492l2.409-10.849h6.284l1.865,29.966h-5.325L211.116,105.251z"/>
	<path fill="#FFFFFF" d="M227.315,85.777v29.966h-5.962V85.777H227.315z"/>
	<path fill="#FFFFFF" d="M232.639,115.744V85.777h5.461l4.734,11.738c0.91,2.312,2.412,6.181,3.279,8.758h0.088
		c-0.183-3.155-0.592-8.357-0.592-13.871v-6.625h5.233v29.966h-5.462l-4.687-11.382c-1.002-2.534-2.412-6.313-3.095-9.025h-0.092
		c0.138,3.024,0.366,7.646,0.366,13.647v6.759H232.639z"/>
	<path fill="#FFFFFF" d="M262.08,85.777v29.966h-5.961V85.777H262.08z"/>
	<path fill="#FFFFFF" d="M272.275,108.896l-1.365,6.848h-5.78l6.644-29.966h7.146l5.962,29.966H279.1l-1.318-6.848H272.275z
		 M277.235,104.362l-1.001-6.268c-0.318-1.823-0.729-4.802-1.001-6.803h-0.136c-0.32,2-0.775,5.113-1.094,6.847l-1.139,6.224
		H277.235z"/>
	<path fill="#FFFFFF" d="M288.246,85.777h5.961V99.25h0.092c0.501-1.246,1.002-2.58,1.502-3.869l4.096-9.604h6.554l-6.872,13.026
		l6.963,16.94h-6.508l-4.46-12.405l-1.366,2.446v9.959h-5.961V85.777z"/>
</g>
<g>
	<path fill="#FFFFFF" d="M19.139,85.767v30.315h-1.201V90.244c0-0.372,0.013-0.763,0.04-1.178l-7.522,21.188
		c-0.128,0.372-0.307,0.557-0.54,0.557H9.697c-0.233,0-0.415-0.185-0.54-0.557L1.432,89.022c0.026,0.429,0.04,0.836,0.04,1.221
		v25.838H0.258V85.767h0.957c0.126,0,0.227,0.022,0.297,0.065c0.074,0.042,0.145,0.156,0.219,0.341l7.71,21.08
		c0.136,0.401,0.253,0.828,0.352,1.287c0.055-0.228,0.114-0.454,0.176-0.674c0.063-0.222,0.131-0.434,0.202-0.632l7.496-21.06
		c0.072-0.186,0.147-0.3,0.222-0.341c0.078-0.043,0.18-0.065,0.307-0.065H19.139z"/>
	<path fill="#FFFFFF" d="M39.316,116.082h-1.067c-0.126,0-0.229-0.055-0.31-0.162c-0.082-0.107-0.145-0.247-0.189-0.417
		l-2.242-8.806h-9.387l-2.242,8.806c-0.035,0.157-0.101,0.293-0.189,0.406c-0.092,0.115-0.198,0.173-0.322,0.173h-1.056
		l7.821-30.315h1.363L39.316,116.082z M35.089,105.07l-3.891-15.318c-0.134-0.501-0.265-1.1-0.391-1.801
		c-0.054,0.343-0.113,0.668-0.175,0.974c-0.064,0.309-0.133,0.59-0.203,0.847l-3.89,15.298H35.089z"/>
	<path fill="#FFFFFF" d="M53.025,87.629h-6.713v28.452h-1.391V87.629h-6.755v-1.863h14.858V87.629z"/>
	<path fill="#FFFFFF" d="M67.722,114.258l-0.029,1.823H56.24V85.767h11.452v1.821H57.631v12.254h8.374v1.778h-8.374v12.638H67.722z"
		/>
	<path fill="#FFFFFF" d="M78.903,114.517c0.919,0,1.739-0.253,2.464-0.761c0.725-0.508,1.34-1.21,1.845-2.109
		c0.503-0.901,0.889-1.961,1.153-3.183c0.266-1.22,0.4-2.539,0.4-3.952V85.767h1.376v18.745c0,1.671-0.167,3.231-0.499,4.681
		c-0.333,1.45-0.813,2.714-1.439,3.792c-0.625,1.08-1.387,1.926-2.281,2.538c-0.896,0.614-1.902,0.921-3.019,0.921
		c-1.117,0-2.123-0.307-3.02-0.921c-0.896-0.612-1.657-1.458-2.283-2.538c-0.625-1.078-1.104-2.342-1.437-3.792
		c-0.335-1.45-0.502-3.01-0.502-4.681V85.767h1.393v18.724c0,1.415,0.131,2.731,0.397,3.952c0.266,1.222,0.647,2.283,1.149,3.182
		c0.5,0.9,1.111,1.607,1.836,2.122C77.161,114.258,77.983,114.517,78.903,114.517z"/>
	<path fill="#FFFFFF" d="M100.822,89.451c-0.081,0.243-0.196,0.364-0.35,0.364c-0.118,0-0.269-0.132-0.454-0.397
		c-0.184-0.263-0.435-0.557-0.749-0.878c-0.315-0.32-0.711-0.618-1.183-0.889c-0.473-0.271-1.055-0.407-1.749-0.407
		c-0.692,0-1.303,0.158-1.829,0.472c-0.526,0.314-0.969,0.743-1.325,1.286c-0.354,0.543-0.625,1.17-0.809,1.885
		c-0.186,0.714-0.278,1.465-0.278,2.25c0,1.028,0.138,1.878,0.412,2.549c0.274,0.672,0.639,1.243,1.088,1.714
		c0.45,0.471,0.962,0.868,1.534,1.189c0.57,0.32,1.158,0.639,1.762,0.952c0.603,0.315,1.19,0.662,1.761,1.039
		c0.572,0.38,1.084,0.854,1.533,1.427c0.451,0.57,0.813,1.273,1.09,2.109c0.272,0.834,0.41,1.875,0.41,3.117
		c0,1.272-0.138,2.466-0.41,3.587c-0.277,1.123-0.675,2.097-1.198,2.926c-0.521,0.828-1.159,1.481-1.916,1.959
		c-0.756,0.479-1.621,0.719-2.592,0.719c-1.263,0-2.348-0.354-3.256-1.061c-0.91-0.708-1.707-1.675-2.392-2.903l0.38-0.943
		c0.106-0.213,0.232-0.321,0.377-0.321c0.08,0,0.185,0.085,0.311,0.255c0.125,0.173,0.278,0.383,0.459,0.632
		c0.181,0.251,0.395,0.522,0.647,0.815c0.253,0.294,0.545,0.565,0.878,0.814c0.336,0.25,0.716,0.461,1.147,0.632
		c0.435,0.171,0.923,0.257,1.474,0.257c0.756,0,1.432-0.184,2.025-0.547c0.596-0.363,1.096-0.859,1.507-1.488
		c0.409-0.63,0.723-1.375,0.938-2.24c0.216-0.862,0.324-1.788,0.324-2.773c0-1.071-0.139-1.954-0.412-2.646
		c-0.274-0.693-0.637-1.271-1.087-1.735c-0.451-0.465-0.961-0.853-1.534-1.167c-0.571-0.314-1.158-0.623-1.762-0.921
		c-0.604-0.301-1.191-0.636-1.762-1.008c-0.573-0.372-1.086-0.847-1.532-1.425c-0.452-0.578-0.814-1.3-1.089-2.164
		c-0.273-0.864-0.411-1.946-0.411-3.246c0-1.014,0.12-1.992,0.363-2.934c0.244-0.943,0.601-1.775,1.068-2.496
		c0.468-0.721,1.047-1.3,1.735-1.735c0.688-0.436,1.475-0.654,2.357-0.654c0.988,0,1.879,0.251,2.666,0.75
		c0.788,0.5,1.508,1.265,2.155,2.293L100.822,89.451z"/>
	<path fill="#FFFFFF" d="M118.272,86.517c0,0.272-0.063,0.563-0.188,0.877l-12.129,26.864h12.223v1.823h-14.073v-0.794
		c0-0.157,0.016-0.296,0.047-0.417c0.031-0.122,0.07-0.24,0.115-0.354l12.156-26.929h-11.967v-1.821h13.816V86.517z"/>
</g>
</svg>
